<svg width="584" height="55" viewBox="0 0 584 55" fill="none" xmlns="http://www.w3.org/2000/svg">
<path d="M8.63867 27.9883L30.377 35.8496V45.1123L0.845703 32.6025V26.04L8.63867 27.9883ZM30.377 21.5625L8.60449 29.5605L0.845703 31.4062V24.8438L30.377 12.334V21.5625ZM59.7715 0.234375L41.5195 54.2725H34.2051L52.457 0.234375H59.7715ZM86.6367 29.3555L64.7275 21.5283V12.334L94.498 24.8438V31.4404L86.6367 29.3555ZM64.7275 35.918L86.6709 27.9199L94.498 26.04V32.6025L64.7275 45.1123V35.918ZM138.829 34.7217V0.234375H149.049V34.7217C149.049 38.0485 148.32 40.9082 146.861 43.3008C145.403 45.6706 143.409 47.4935 140.88 48.7695C138.373 50.0456 135.548 50.6836 132.403 50.6836C129.145 50.6836 126.262 50.1367 123.756 49.043C121.249 47.9492 119.278 46.2744 117.843 44.0186C116.407 41.7399 115.689 38.8574 115.689 35.3711H125.978C125.978 37.194 126.228 38.641 126.729 39.7119C127.254 40.7829 127.994 41.5462 128.951 42.002C129.908 42.4577 131.059 42.6855 132.403 42.6855C133.702 42.6855 134.83 42.3779 135.787 41.7627C136.744 41.1475 137.485 40.2474 138.009 39.0625C138.556 37.8776 138.829 36.4307 138.829 34.7217ZM177.281 8.74512L163.746 50H152.843L171.334 0.234375H178.272L177.281 8.74512ZM188.526 50L174.957 8.74512L173.863 0.234375H180.87L199.464 50H188.526ZM187.911 31.4746V39.5068H161.627V31.4746H187.911ZM237.472 42.002V50H210.982V42.002H237.472ZM214.332 0.234375V50H204.078V0.234375H214.332ZM234.02 20.5029V28.2959H210.982V20.5029H234.02ZM237.438 0.234375V8.2666H210.982V0.234375H237.438ZM276.642 20.5029V28.501H250.665V20.5029H276.642ZM253.707 0.234375V50H243.453V0.234375H253.707ZM283.956 0.234375V50H273.736V0.234375H283.956ZM304.874 42.1045L314.786 0.234375H320.323L321.588 7.20703L311.026 50H305.079L304.874 42.1045ZM299.781 0.234375L307.984 42.1045L307.301 50H300.67L289.63 0.234375H299.781ZM330.304 41.9336L338.404 0.234375H348.556L337.55 50H330.919L330.304 41.9336ZM323.434 0.234375L333.414 42.2754L333.141 50H327.193L316.563 7.17285L317.931 0.234375H323.434ZM372.857 8.74512L359.322 50H348.419L366.91 0.234375H373.849L372.857 8.74512ZM384.103 50L370.533 8.74512L369.439 0.234375H376.446L395.04 50H384.103ZM383.487 31.4746V39.5068H357.203V31.4746H383.487ZM440.157 0.234375V50H429.903L409.908 16.6406V50H399.654V0.234375H409.908L429.938 33.6279V0.234375H440.157ZM476.764 0.234375V50H466.51V0.234375H476.764ZM506.568 0.234375L486.847 24.8096L475.465 37.0459L473.619 27.3389L481.31 16.8115L493.99 0.234375H506.568ZM494.913 50L480.25 26.9971L487.838 20.6396L507.047 50H494.913ZM521.915 0.234375V50H511.695V0.234375H521.915ZM536.202 0.234375H544.884L557.667 36.7725L570.45 0.234375H579.132L561.153 50H554.181L536.202 0.234375ZM531.52 0.234375H540.167L541.739 35.8496V50H531.52V0.234375ZM575.167 0.234375H583.849V50H573.595V35.8496L575.167 0.234375Z" fill="black"/>
</svg>
